<?xml version="1.0" encoding="UTF-8"?>
<svg width="24px" height="24px" viewBox="0 0 24 24" version="1.1" xmlns="http://www.w3.org/2000/svg" xmlns:xlink="http://www.w3.org/1999/xlink">
    <title>Rocket</title>
    <g id="Page-1" stroke="none" stroke-width="1" fill="none" fill-rule="evenodd">
        <g id="Rocket">
            <rect id="Rectangle" x="0" y="0" width="24" height="24"></rect>
            <path d="M13.2819095,2.56512714 C12.9503407,2.23355839 12.4846881,2.05047607 12,2.05047607 C11.5153119,2.05047607 11.0496593,2.23355839 10.7180905,2.56512714 C8.55237308,4.73084456 6.67953153,7.17259051 5.14352187,9.82348321 C5.04292799,9.98448638 5.00427108,10.1728942 5.03374112,10.3574816 C5.06321116,10.542069 5.15896555,10.7115759 5.30352187,10.8334832 L8.17152187,13.1434832 C8.31607819,13.2653906 8.49558508,13.3334832 8.68152187,13.3334832 L10.0015219,13.3334832 L10.0015219,14.6534832 C10.0015219,14.83942 10.0696145,15.0189269 10.1915219,15.1634832 L12.5015219,18.0314832 C12.6234292,18.1760396 12.7929361,18.271794 12.9775235,18.301264 C13.1621109,18.3307341 13.3505187,18.2920772 13.5115219,18.1914832 C16.1624146,16.6554735 18.6041605,14.782632 20.7695219,12.6164832 C21.1010906,12.2849145 21.284173,11.8192619 21.284173,11.3345738 C21.284173,10.8498857 21.1010906,10.3842331 20.7695219,10.0526643 L13.2819095,2.56512714 Z M12,4.05047607 L18.7695219,10.8199979 C16.8333219,12.7561979 14.6439219,14.4089979 12.2695219,15.7561979 L10.6695219,13.8199979 L10.6695219,12.6667979 C10.6695219,12.2985979 10.3695219,11.9985979 10.0015219,11.9985979 L8.84752187,11.9985979 L6.91152187,10.3985979 C8.25872187,8.02419786 9.91152187,5.83479786 11.8477219,3.89859786 C11.8903219,3.85599786 11.9435219,3.83479786 12.0015219,3.83479786 C12.0595219,3.83479786 12.1127219,3.85599786 12.1553219,3.89859786 L12,4.05047607 Z" id="Shape" fill="#424242" fill-rule="nonzero"></path>
            <path d="M17.5,11.3334832 C17.5,10.5050547 16.8284271,9.83348321 16,9.83348321 C15.1715729,9.83348321 14.5,10.5050547 14.5,11.3334832 C14.5,12.1619118 15.1715729,12.8334832 16,12.8334832 C16.8284271,12.8334832 17.5,12.1619118 17.5,11.3334832 Z" id="Path" fill="#424242"></path>
            <path d="M4.08152187,16.6034832 C3.91152187,16.4334832 3.67952187,16.3334832 3.43152187,16.3334832 C3.18352187,16.3334832 2.95152187,16.4334832 2.78152187,16.6034832 C2.61152187,16.7734832 2.51152187,17.0054832 2.51152187,17.2534832 C2.51152187,17.5014832 2.61152187,17.7334832 2.78152187,17.9034832 L6.43152187,21.5534832 C6.60152187,21.7234832 6.83352187,21.8234832 7.08152187,21.8234832 C7.32952187,21.8234832 7.56152187,21.7234832 7.73152187,21.5534832 C7.90152187,21.3834832 8.00152187,21.1514832 8.00152187,20.9034832 C8.00152187,20.6554832 7.90152187,20.4234832 7.73152187,20.2534832 L4.08152187,16.6034832 Z" id="Path" fill="#424242"></path>
            <path d="M8.43152187,15.6034832 C8.26152187,15.4334832 8.02952187,15.3334832 7.78152187,15.3334832 C7.53352187,15.3334832 7.30152187,15.4334832 7.13152187,15.6034832 C6.96152187,15.7734832 6.86152187,16.0054832 6.86152187,16.2534832 C6.86152187,16.5014832 6.96152187,16.7334832 7.13152187,16.9034832 L9.43152187,19.2034832 C9.60152187,19.3734832 9.83352187,19.4734832 10.0815219,19.4734832 C10.3295219,19.4734832 10.5615219,19.3734832 10.7315219,19.2034832 C10.9015219,19.0334832 11.0015219,18.8014832 11.0015219,18.5534832 C11.0015219,18.3054832 10.9015219,18.0734832 10.7315219,17.9034832 L8.43152187,15.6034832 Z" id="Path" fill="#424242"></path>
            <path d="M3.08152187,19.6034832 C2.91152187,19.4334832 2.67952187,19.3334832 2.43152187,19.3334832 C2.18352187,19.3334832 1.95152187,19.4334832 1.78152187,19.6034832 C1.61152187,19.7734832 1.51152187,20.0054832 1.51152187,20.2534832 C1.51152187,20.5014832 1.61152187,20.7334832 1.78152187,20.9034832 L2.43152187,21.5534832 C2.60152187,21.7234832 2.83352187,21.8234832 3.08152187,21.8234832 C3.32952187,21.8234832 3.56152187,21.7234832 3.73152187,21.5534832 C3.90152187,21.3834832 4.00152187,21.1514832 4.00152187,20.9034832 C4.00152187,20.6554832 3.90152187,20.4234832 3.73152187,20.2534832 L3.08152187,19.6034832 Z" id="Path" fill="#424242"></path>
        </g>
    </g>
</svg>
